# Blender 5.1.1
# www.blender.org
o Grass
v -0.003860 0.158341 0.116147
v 0.087706 0.158341 0.076241
v -0.024027 0.000000 0.033923
v 0.041205 0.000000 0.005493
v 0.111847 0.304970 0.278732
v -0.032965 0.124706 -0.100881
v -0.117186 0.124706 -0.012088
v -0.000097 0.000000 -0.044528
v -0.060097 0.000000 0.018730
v -0.169966 0.222170 -0.160473
v 0.131363 0.154720 -0.017931
v 0.058379 0.154720 -0.107942
v 0.058245 -0.000000 0.021313
v 0.006250 0.000000 -0.042811
v 0.247891 0.297997 -0.177124
v -0.078949 0.141033 0.015126
v -0.033110 0.141033 0.064377
v -0.019891 -0.006027 -0.027084
v 0.012765 -0.006027 0.008003
v -0.192455 0.270278 0.158142
v 0.026341 0.107935 -0.069941
v -0.007621 0.107935 -0.072659
v 0.016920 0.000000 -0.013639
v -0.007275 0.000000 -0.015576
v 0.022981 0.207886 -0.203746
v -0.003860 0.158341 0.116147
v 0.087706 0.158341 0.076241
v -0.024027 0.000000 0.033923
v 0.041205 0.000000 0.005493
v 0.111847 0.304970 0.278732
v -0.032965 0.124706 -0.100881
v -0.117186 0.124706 -0.012088
v -0.000097 0.000000 -0.044528
v -0.060097 0.000000 0.018730
v -0.169966 0.222170 -0.160473
v 0.131363 0.154720 -0.017931
v 0.058379 0.154720 -0.107942
v 0.058245 -0.000000 0.021313
v 0.006250 0.000000 -0.042811
v 0.247891 0.297997 -0.177124
v -0.078949 0.141033 0.015126
v -0.033110 0.141033 0.064377
v -0.019891 -0.006027 -0.027084
v 0.012765 -0.006027 0.008003
v -0.192455 0.270278 0.158142
v 0.026341 0.107935 -0.069941
v -0.007621 0.107935 -0.072659
v 0.016920 0.000000 -0.013639
v -0.007275 0.000000 -0.015576
v 0.022981 0.207886 -0.203746
vn -0.3535 0.4662 -0.8110
vn -0.2399 0.7997 -0.5505
vn 0.6484 0.4488 0.6150
vn 0.4137 0.8215 0.3924
vn -0.6872 0.4661 0.5572
vn -0.4665 0.7996 0.3782
vn 0.6575 0.4397 -0.6119
vn 0.4261 0.8131 -0.3966
vn -0.0706 0.4662 0.8819
vn -0.0479 0.7997 0.5985
vn 0.3535 -0.4662 0.8110
vn 0.2399 -0.7997 0.5505
vn -0.6484 -0.4488 -0.6150
vn -0.4137 -0.8215 -0.3924
vn 0.6872 -0.4661 -0.5572
vn 0.4665 -0.7996 -0.3782
vn -0.6575 -0.4397 0.6119
vn -0.4261 -0.8131 0.3966
vn 0.0706 -0.4662 -0.8819
vn 0.0479 -0.7997 -0.5985
vn -0.0000 1.0000 -0.0000
vt 0.229895 0.495533
vt 0.034776 0.494572
vt 0.064452 0.145104
vt 0.203471 0.145732
vt 0.147169 0.972177
vt 0.880274 0.499939
vt 0.641207 0.498188
vt 0.676219 0.225843
vt 0.846547 0.227054
vt 0.778077 0.833100
vt 0.475320 0.494898
vt 0.248914 0.494512
vt 0.283790 0.153089
vt 0.444998 0.153064
vt 0.376020 0.960813
vt 0.625151 0.499484
vt 0.493701 0.498676
vt 0.514740 0.179053
vt 0.608346 0.179398
vt 0.568732 0.932869
vt 0.959795 0.498867
vt 0.893239 0.498656
vt 0.903518 0.260360
vt 0.950935 0.260495
vt 0.931341 0.823961
s 0
f 1/1/1 2/2/1 4/3/1 3/4/1
f 2/2/2 1/1/2 5/5/2
f 6/6/3 7/7/3 9/8/3 8/9/3
f 7/7/4 6/6/4 10/10/4
f 11/11/5 12/12/5 14/13/5 13/14/5
f 12/12/6 11/11/6 15/15/6
f 16/16/7 17/17/7 19/18/7 18/19/7
f 17/17/8 16/16/8 20/20/8
f 21/21/9 22/22/9 24/23/9 23/24/9
f 22/22/10 21/21/10 25/25/10
f 26/1/11 28/4/11 29/3/11 27/2/11
f 27/2/12 30/5/12 26/1/12
f 31/6/13 33/9/13 34/8/13 32/7/13
f 32/7/14 35/10/14 31/6/14
f 36/11/15 38/14/15 39/13/15 37/12/15
f 37/12/16 40/15/16 36/11/16
f 41/16/17 43/19/17 44/18/17 42/17/17
f 42/17/18 45/20/18 41/16/18
f 46/21/19 48/24/19 49/23/19 47/22/19
f 47/22/20 50/25/20 46/21/20
f 1/1/21 3/4/21 28/4/21 26/1/21
f 4/3/21 2/2/21 27/2/21 29/3/21
f 3/4/21 4/3/21 29/3/21 28/4/21
f 5/5/21 1/1/21 26/1/21 30/5/21
f 2/2/21 5/5/21 30/5/21 27/2/21
f 6/6/21 8/9/21 33/9/21 31/6/21
f 9/8/21 7/7/21 32/7/21 34/8/21
f 8/9/21 9/8/21 34/8/21 33/9/21
f 10/10/21 6/6/21 31/6/21 35/10/21
f 7/7/21 10/10/21 35/10/21 32/7/21
f 11/11/21 13/14/21 38/14/21 36/11/21
f 14/13/21 12/12/21 37/12/21 39/13/21
f 13/14/21 14/13/21 39/13/21 38/14/21
f 15/15/21 11/11/21 36/11/21 40/15/21
f 12/12/21 15/15/21 40/15/21 37/12/21
f 16/16/21 18/19/21 43/19/21 41/16/21
f 19/18/21 17/17/21 42/17/21 44/18/21
f 18/19/21 19/18/21 44/18/21 43/19/21
f 20/20/21 16/16/21 41/16/21 45/20/21
f 17/17/21 20/20/21 45/20/21 42/17/21
f 21/21/21 23/24/21 48/24/21 46/21/21
f 24/23/21 22/22/21 47/22/21 49/23/21
f 23/24/21 24/23/21 49/23/21 48/24/21
f 25/25/21 21/21/21 46/21/21 50/25/21
f 22/22/21 25/25/21 50/25/21 47/22/21
