# Blender 5.1.1
# www.blender.org
o Grid
v -3.908482 0.762583 -4.177351
v -3.908482 0.737337 -2.844018
v -3.908482 0.594127 -1.510684
v -3.908482 0.551766 -0.177351
v -3.908482 0.513604 1.155982
v -3.908482 0.485331 2.489316
v -3.908482 0.584027 3.822649
v -2.575148 0.732848 -4.177351
v -2.575148 0.664934 -2.844018
v -1.781467 0.262391 -1.148331
v -2.256303 0.269453 -0.508525
v -2.256303 0.217689 0.824808
v -1.657203 0.402439 1.599831
v -2.575148 0.584320 3.822649
v -1.241815 0.701653 -4.177351
v -1.241815 0.303620 -2.844018
v -1.241815 0.017238 -1.510684
v -1.241815 0.000000 -0.177351
v -1.241815 0.022341 1.155982
v -0.922970 0.330396 2.158141
v -1.241815 0.515142 3.822649
v 0.091518 0.782585 -4.177351
v 0.091518 0.376950 -2.844018
v 0.094864 0.055055 -1.728508
v 0.091518 0.000000 -0.177351
v 0.091518 0.154616 1.155982
v 0.410364 0.433266 2.158141
v 0.091518 0.490817 3.822649
v 1.424852 0.777601 -4.177351
v 1.424852 0.567352 -2.844018
v 1.424852 0.289670 -1.510684
v 1.424852 0.009069 -0.177351
v 1.268158 0.264506 0.967142
v 1.033607 0.570793 1.904752
v 1.424852 0.645759 3.822649
v 2.758185 0.693487 -4.177351
v 2.758186 0.333668 -2.844018
v 2.050777 0.387922 -0.930894
v 2.308301 0.068548 -0.112141
v 2.101214 0.307738 0.921068
v 1.714077 0.551752 1.626712
v 2.758185 0.645321 3.822649
v 4.091518 0.664177 -4.177351
v 4.091518 0.588385 -2.844017
v 4.091518 0.641652 -1.510684
v 4.091518 0.491378 -0.177351
v 4.091518 0.571151 1.155982
v 4.091518 0.778560 2.489316
v 4.091518 0.785844 3.822649
v -1.299409 0.457669 -1.826035
v 0.074425 0.499951 -1.881091
v -2.412639 0.645060 0.757982
v -1.900572 0.829735 1.678506
v -1.010002 0.727195 2.303643
v 2.344943 0.794861 2.771375
v 3.011610 0.720511 2.104709
v 1.488123 0.591736 3.263591
v 3.605566 0.435313 1.132823
v -3.918102 0.298546 -4.171511
v -3.918102 0.273300 -2.838178
v -3.918102 0.130090 -1.504845
v -3.918102 0.087729 -0.171512
v -3.918102 0.049567 1.161822
v -3.918102 0.021294 2.495155
v -3.918102 0.119990 3.828488
v -2.584768 0.268811 -4.171512
v -2.584768 0.120283 3.828488
v -1.251435 0.237616 -4.171512
v -1.251435 0.051105 3.828488
v 0.081898 0.318548 -4.171512
v 0.081898 0.026780 3.828488
v 1.415232 0.313564 -4.171512
v 1.415232 0.181722 3.828488
v 2.748566 0.229450 -4.171512
v 2.748565 0.181284 3.828488
v 4.081899 0.200140 -4.171512
v 4.081898 0.124348 -2.838178
v 4.081898 0.177615 -1.504845
v 4.081898 0.027341 -0.171511
v 4.081898 0.107114 1.161822
v 4.081898 0.314523 2.495155
v 4.081898 0.321807 3.828489
v -3.929054 -0.468971 -4.164864
v -3.929054 -0.468971 -2.831531
v -3.929054 -0.468971 -1.498197
v -3.929054 -0.468971 -0.164864
v -3.929054 -0.468971 1.168470
v -3.929054 -0.468971 2.501803
v -3.929054 -0.468971 3.835136
v -2.595721 -0.468971 -4.164864
v -2.595721 -0.468971 3.835136
v -1.262387 -0.468971 -4.164864
v -1.262387 -0.468971 3.835136
v 0.070946 -0.468971 -4.164864
v 0.070946 -0.468971 3.835136
v 1.404280 -0.468971 -4.164864
v 1.404279 -0.468971 3.835136
v 2.737613 -0.468971 -4.164864
v 2.737612 -0.468971 3.835136
v 4.070946 -0.468971 -4.164864
v 4.070946 -0.468971 -2.831530
v 4.070946 -0.468971 -1.498197
v 4.070946 -0.468971 -0.164863
v 4.070946 -0.468971 1.168470
v 4.070946 -0.468971 2.501803
v 4.070945 -0.468971 3.835136
vn 0.0383 0.9987 0.0349
vn 0.0990 0.9835 0.1513
vn 0.1597 0.9856 0.0561
vn -0.0262 0.3391 -0.9404
vn 0.1435 0.9749 0.1703
vn 0.0746 0.4711 0.8789
vn 0.3148 0.9457 0.0806
vn 0.2199 0.9755 0.0108
vn 0.3379 0.8474 -0.4095
vn -0.0553 0.9560 0.2881
vn -0.0121 0.9996 0.0250
vn -0.0494 0.9966 -0.0661
vn -0.0849 0.9632 -0.2549
vn -0.0676 0.9721 0.2245
vn -0.2065 0.3089 0.9284
vn -0.0998 0.9883 0.1149
vn -0.0592 0.9842 -0.1666
vn -0.1970 0.9410 -0.2752
vn -0.1252 0.9919 -0.0201
vn 0.1158 0.9713 0.2076
vn 0.0456 0.9959 0.0785
vn -0.2198 0.9326 0.2863
vn -0.0556 0.9716 -0.2300
vn -0.0891 0.9338 -0.3464
vn -0.1403 0.9892 -0.0435
vn -0.0831 0.9835 0.1607
vn -0.1600 0.9848 -0.0675
vn -0.1325 0.9650 0.2264
vn -0.1585 0.9796 -0.1234
vn -0.0233 0.9494 -0.3132
vn -0.0293 0.9992 0.0267
vn 0.1132 0.9918 0.0601
vn -0.0451 0.9891 -0.1400
vn -0.0019 0.9977 0.0672
vn 0.6273 0.5059 0.5920
vn 0.0180 0.9917 -0.1276
vn -0.1465 0.9886 -0.0353
vn -0.0970 0.9950 0.0232
vn 0.0390 0.9903 0.1333
vn 0.1181 0.9906 0.0685
vn 0.5635 0.4195 -0.7117
vn 0.7442 0.3559 -0.5652
vn 0.9384 0.3454 0.0134
vn -0.2662 0.9622 -0.0576
vn -0.0621 0.9726 -0.2239
vn -0.0639 0.9828 -0.1735
vn -0.0751 0.9943 0.0753
vn -0.1147 0.9875 -0.1084
vn -0.0000 0.0113 0.9999
vn -0.0001 -0.0088 -1.0000
vn 0.9998 -0.0204 0.0006
vn -0.9998 0.0190 0.0003
vn -0.0001 -0.0097 -1.0000
vn -0.9998 0.0203 -0.0008
vn -0.0007 0.0116 0.9999
vn 0.0003 -0.0089 -1.0000
vn 0.9998 -0.0192 -0.0011
vn 0.0003 0.0120 0.9999
vn -0.0000 0.0102 0.9999
vn -0.9998 0.0217 0.0002
vn -0.9999 0.0163 0.0009
vn 0.9999 -0.0139 -0.0000
vn 0.9998 -0.0177 0.0004
vn -0.0000 -0.0085 -1.0000
vn -0.0005 0.0092 1.0000
vn -0.9998 0.0204 0.0003
vn 0.9999 -0.0161 0.0013
vn 0.9998 -0.0174 -0.0005
vn -0.0001 -0.0092 -1.0000
vn -0.0003 -0.0090 -1.0000
vn 0.0001 0.0131 0.9999
vn -0.9999 0.0145 0.0001
vn 0.9998 -0.0207 0.0032
vn -0.9998 0.0207 0.0006
vn -0.0013 0.0126 0.9999
vn -0.0000 -0.0126 -0.9999
vn 0.9998 -0.0207 0.0008
vn 0.9998 -0.0207 0.0001
vn -0.9998 0.0208 0.0022
vn -0.9998 0.0207 0.0004
vn -0.0000 0.0126 0.9999
vn 0.0007 0.0126 0.9999
vn 0.9998 -0.0208 -0.0023
vn 0.0008 -0.0126 -0.9999
vn -0.0015 0.0126 0.9999
vn -0.9998 0.0207 -0.0015
vn -0.0003 -0.0126 -0.9999
vn -0.9998 0.0207 0.0007
vn 0.9998 -0.0207 0.0012
vn 0.0002 0.0126 0.9999
vn -0.0008 -0.0126 -0.9999
vn 0.9998 -0.0207 -0.0012
vt 0.015757 0.567479
vt 0.016403 0.475436
vt 0.108661 0.475962
vt 0.107807 0.568085
vt 0.017216 0.383040
vt 0.164592 0.357240
vt 0.017238 0.290743
vt 0.132243 0.313588
vt 0.921379 0.943136
vt 0.944220 0.853718
vt 0.973787 0.857264
vt 0.202263 0.474728
vt 0.199464 0.568995
vt 0.888148 0.852193
vt 0.893196 0.758830
vt 0.925680 0.759426
vt 0.925680 0.854358
vt 0.631138 0.666701
vt 0.675519 0.634207
vt 0.699192 0.706298
vt 0.607191 0.708273
vt 0.767555 0.634207
vt 0.789934 0.704682
vt 0.825481 0.671248
vt 0.862250 0.723497
vt 0.291740 0.476705
vt 0.291299 0.571881
vt 0.701535 0.798683
vt 0.593968 0.800986
vt 0.794553 0.795827
vt 0.866974 0.815657
vt 0.384601 0.479488
vt 0.383138 0.573081
vt 0.901367 0.664778
vt 0.704323 0.891141
vt 0.610088 0.894175
vt 0.785341 0.878170
vt 0.853444 0.861104
vt 0.315303 0.129211
vt 0.292769 0.012393
vt 0.390601 0.050739
vt 0.359841 0.146293
vt 0.477437 0.479166
vt 0.475499 0.574018
vt 0.387828 0.383657
vt 0.435818 0.347588
vt 0.711251 0.952208
vt 0.649368 0.938723
vt 0.784230 0.936040
vt 0.835459 0.908596
vt 0.451126 0.085105
vt 0.407482 0.165458
vt 0.571356 0.483877
vt 0.568376 0.576878
vt 0.575886 0.389380
vt 0.450164 0.288184
vt 0.574756 0.294307
vt 0.433811 0.217257
vt 0.538744 0.201779
vt 0.497980 0.130806
vt 0.573792 0.104043
vt 0.479434 0.011475
vt 0.573183 0.010809
vt 0.197351 0.405304
vt 0.292566 0.409515
vt 0.888529 0.900135
vt 0.014608 0.198339
vt 0.119112 0.223713
vt 0.012783 0.104711
vt 0.152973 0.159052
vt 0.013036 0.010809
vt 0.106683 0.011059
vt 0.199687 0.011029
vt 0.214369 0.117199
vt 0.953607 0.790562
vt 0.987140 0.783032
vt 0.939332 0.723265
vt 0.968827 0.711537
vt 0.921379 0.632947
vt 0.574200 0.199007
vt 0.386235 0.011514
vt 0.670845 0.572848
vt 0.630198 0.573604
vt 0.630198 0.481589
vt 0.670866 0.480833
vt 0.736171 0.113527
vt 0.685254 0.112771
vt 0.685254 0.020756
vt 0.738223 0.021511
vt 0.820353 0.205026
vt 0.860119 0.204784
vt 0.859617 0.296798
vt 0.825355 0.297070
vt 0.757092 0.204787
vt 0.798441 0.205246
vt 0.798441 0.297261
vt 0.760015 0.296802
vt 0.731432 0.573604
vt 0.685254 0.572848
vt 0.685254 0.480833
vt 0.733455 0.481589
vt 0.764599 0.480833
vt 0.798441 0.481292
vt 0.798441 0.573307
vt 0.757789 0.572849
vt 0.664414 0.296802
vt 0.630198 0.297558
vt 0.630198 0.205542
vt 0.675106 0.204787
vt 0.739604 0.297558
vt 0.685254 0.296802
vt 0.685254 0.204787
vt 0.734019 0.205542
vt 0.859115 0.388812
vt 0.814484 0.389028
vt 0.630198 0.389573
vt 0.666092 0.388818
vt 0.630198 0.113527
vt 0.675075 0.112771
vt 0.762648 0.388818
vt 0.798441 0.389276
vt 0.747210 0.112771
vt 0.798441 0.113230
vt 0.806543 0.020916
vt 0.861123 0.020756
vt 0.860621 0.112770
vt 0.806543 0.112933
vt 0.858613 0.480826
vt 0.817658 0.481062
vt 0.739260 0.389573
vt 0.685254 0.388817
vt 0.630198 0.021512
vt 0.684772 0.020756
vt 0.858112 0.572840
vt 0.811927 0.573047
vt 0.745468 0.020756
vt 0.798441 0.021215
vt 0.108507 0.756677
vt 0.108654 0.724644
vt 0.200902 0.711914
vt 0.200755 0.743947
vt 0.291738 0.689492
vt 0.292877 0.657479
vt 0.384929 0.656962
vt 0.383790 0.688975
vt 0.107291 0.601931
vt 0.108762 0.633930
vt 0.016531 0.626557
vt 0.015060 0.594557
vt 0.384718 0.772400
vt 0.384279 0.804430
vt 0.292264 0.804733
vt 0.292703 0.772703
vt 0.384676 0.751967
vt 0.384822 0.719934
vt 0.476887 0.717837
vt 0.476741 0.749870
vt 0.016497 0.755601
vt 0.016643 0.723568
vt 0.107461 0.698062
vt 0.108601 0.666049
vt 0.200819 0.658286
vt 0.199680 0.690299
vt 0.476965 0.657126
vt 0.475826 0.689139
vt 0.199276 0.599580
vt 0.200747 0.631580
vt 0.475342 0.596857
vt 0.476813 0.628857
vt 0.384947 0.635950
vt 0.383476 0.603950
vt 0.292852 0.740021
vt 0.292998 0.707988
vt 0.200290 0.810964
vt 0.200729 0.778934
vt 0.291532 0.607948
vt 0.293003 0.639948
vt 0.568800 0.666049
vt 0.567661 0.698062
vt 0.568800 0.778934
vt 0.568361 0.810964
vt 0.476333 0.809588
vt 0.476772 0.777558
vt 0.108701 0.777428
vt 0.108262 0.809458
vt 0.016234 0.808053
vt 0.016673 0.776022
vt 0.567328 0.594557
vt 0.568800 0.626557
vt 0.015430 0.697689
vt 0.016569 0.665676
vt 0.568800 0.724644
vt 0.568653 0.756677
s 0
f 1/1/1 2/2/1 9/3/1 8/4/1
f 2/2/2 3/5/2 10/6/2 9/3/2
f 3/5/3 4/7/3 11/8/3 10/6/3
f 27/9/4 20/10/4 54/11/4
f 8/4/5 9/3/5 16/12/5 15/13/5
f 17/14/6 24/15/6 51/16/6 50/17/6
f 10/18/7 11/19/7 18/20/7 17/21/7
f 11/19/8 12/22/8 19/23/8 18/20/8
f 12/22/9 13/24/9 20/25/9 19/23/9
f 15/13/10 16/12/10 23/26/10 22/27/10
f 17/21/11 18/20/11 25/28/11 24/29/11
f 18/20/12 19/23/12 26/30/12 25/28/12
f 19/23/13 20/25/13 27/31/13 26/30/13
f 22/27/14 23/26/14 30/32/14 29/33/14
f 24/15/15 31/34/15 51/16/15
f 24/29/16 25/28/16 32/35/16 31/36/16
f 25/28/17 26/30/17 33/37/17 32/35/17
f 26/30/18 27/31/18 34/38/18 33/37/18
f 27/39/19 28/40/19 57/41/19 34/42/19
f 29/33/20 30/32/20 37/43/20 36/44/20
f 30/32/21 31/45/21 38/46/21 37/43/21
f 31/36/22 32/35/22 39/47/22 38/48/22
f 32/35/23 33/37/23 40/49/23 39/47/23
f 33/37/24 34/38/24 41/50/24 40/49/24
f 34/42/25 57/41/25 55/51/25 41/52/25
f 36/44/26 37/43/26 44/53/26 43/54/26
f 37/43/27 38/46/27 45/55/27 44/53/27
f 38/46/28 39/56/28 46/57/28 45/55/28
f 40/58/29 58/59/29 46/57/29 39/56/29
f 40/58/30 41/52/30 56/60/30 58/59/30
f 48/61/31 56/60/31 55/51/31 42/62/31 49/63/31
f 9/3/32 10/6/32 50/64/32 16/12/32
f 16/12/33 50/64/33 51/65/33 23/26/33
f 23/26/34 51/65/34 31/45/34 30/32/34
f 10/66/35 17/14/35 50/17/35
f 4/7/36 5/67/36 52/68/36 11/8/36
f 5/67/37 6/69/37 53/70/37 52/68/37
f 6/69/38 7/71/38 14/72/38 53/70/38
f 53/70/39 14/72/39 21/73/39 54/74/39
f 54/74/40 21/73/40 28/40/40 27/39/40
f 20/10/41 13/75/41 53/76/41 54/11/41
f 13/75/42 12/77/42 52/78/42 53/76/42
f 12/77/43 11/79/43 52/78/43
f 58/59/44 47/80/44 46/57/44
f 47/80/45 58/59/45 56/60/45 48/61/45
f 41/52/46 55/51/46 56/60/46
f 35/81/47 42/62/47 55/51/47 57/41/47
f 28/40/48 35/81/48 57/41/48
f 65/82/49 89/83/49 91/84/49 67/85/49
f 66/86/50 90/87/50 83/88/50 59/89/50
f 80/90/51 104/91/51 103/92/51 79/93/51
f 61/94/52 85/95/52 86/96/52 62/97/52
f 76/98/53 100/99/53 98/100/53 74/101/53
f 64/102/54 88/103/54 89/104/54 65/105/54
f 71/106/55 95/107/55 97/108/55 73/109/55
f 70/110/56 94/111/56 92/112/56 68/113/56
f 79/93/57 103/92/57 102/114/57 78/115/57
f 67/85/58 91/84/58 93/116/58 69/117/58
f 73/109/59 97/108/59 99/118/59 75/119/59
f 63/120/60 87/121/60 88/103/60 64/102/60
f 60/122/61 84/123/61 85/95/61 61/94/61
f 82/124/62 106/125/62 105/126/62 81/127/62
f 78/115/63 102/114/63 101/128/63 77/129/63
f 72/130/64 96/131/64 94/111/64 70/110/64
f 75/119/65 99/118/65 106/132/65 82/133/65
f 62/97/66 86/96/66 87/121/66 63/120/66
f 81/127/67 105/126/67 104/91/67 80/90/67
f 77/129/68 101/128/68 100/134/68 76/135/68
f 68/113/69 92/112/69 90/87/69 66/86/69
f 74/101/70 98/100/70 96/131/70 72/130/70
f 69/117/71 93/116/71 95/107/71 71/106/71
f 59/136/72 83/137/72 84/123/72 60/122/72
f 48/138/73 81/139/73 80/140/73 47/141/73
f 4/142/74 62/143/74 63/144/74 5/145/74
f 42/146/75 75/147/75 82/148/75 49/149/75
f 29/150/76 72/151/76 70/152/76 22/153/76
f 45/154/77 78/155/77 77/156/77 44/157/77
f 49/158/78 82/159/78 81/139/78 48/138/78
f 2/160/79 60/161/79 61/162/79 3/163/79
f 5/145/80 63/144/80 64/164/80 6/165/80
f 35/166/81 73/167/81 75/147/81 42/146/81
f 14/168/82 67/169/82 69/170/82 21/171/82
f 46/172/83 79/173/83 78/155/83 45/154/83
f 22/153/84 70/152/84 68/174/84 15/175/84
f 28/176/85 71/177/85 73/167/85 35/166/85
f 6/165/86 64/164/86 65/178/86 7/179/86
f 43/180/87 76/181/87 74/182/87 36/183/87
f 3/163/88 61/162/88 62/143/88 4/142/88
f 47/141/89 80/140/89 79/173/89 46/172/89
f 8/184/87 66/185/87 59/186/87 1/187/87
f 7/188/81 65/189/81 67/169/81 14/168/81
f 1/190/80 59/191/80 60/161/80 2/160/80
f 21/171/90 69/170/90 71/177/90 28/176/90
f 36/183/91 74/182/91 72/151/91 29/150/91
f 15/175/87 68/174/87 66/185/87 8/184/87
f 44/157/92 77/156/92 76/192/92 43/193/92
