# Blender 5.1.1
# www.blender.org
o Icosphere
v -0.030304 -0.608914 0.063615
v 0.746909 -0.214064 0.775166
v -0.301980 -0.194712 0.898395
v -1.019829 -0.363779 -0.047625
v -0.491731 -0.293113 -0.711894
v 0.722855 -0.319875 -0.548074
v 0.425728 0.284462 0.706304
v -0.461117 0.351703 0.432551
v -0.387311 0.376229 -0.412986
v 0.274518 0.342792 -0.356188
v 0.496780 0.348643 0.055645
v -0.003861 0.567028 0.108639
vn 0.0369 -0.8904 0.4538
vn 0.4035 -0.9126 0.0656
vn -0.2623 -0.8957 0.3591
vn -0.2041 -0.9431 -0.2626
vn 0.0329 -0.9187 -0.3936
vn 0.9331 0.3566 -0.0455
vn 0.1179 0.2100 0.9706
vn -0.7930 0.2447 0.5580
vn -0.7474 0.3646 -0.5554
vn 0.1326 0.3574 -0.9245
vn 0.8227 0.5499 0.1441
vn -0.1931 0.6034 0.7737
vn -0.7710 0.6349 -0.0489
vn 0.0983 0.3930 -0.9143
vn 0.7065 0.5908 -0.3897
vn 0.4081 0.9031 0.1336
vn -0.0791 0.8780 0.4720
vn -0.4327 0.9014 -0.0116
vn 0.0801 0.9157 -0.3938
vn 0.3716 0.9036 -0.2134
vt 0.752394 0.750769
vt 0.561600 0.949620
vt 0.526244 0.678799
vt 0.902355 0.949620
vt 0.780567 0.502265
vt 0.956398 0.637430
vt 0.561665 0.595390
vt 0.219827 0.677920
vt 0.342589 0.487152
vt 0.647721 0.317457
vt 0.491371 0.462533
vt 0.306342 0.028595
vt 0.587042 0.124090
vt 0.448342 0.242751
vt 0.040776 0.271858
vt 0.064020 0.063424
vt 0.222789 0.271048
vt 0.069909 0.572233
vt 0.233735 0.450079
vt 0.350104 0.360045
s 0
f 1/1/1 2/2/1 3/3/1
f 2/2/2 1/1/2 6/4/2
f 1/1/3 3/3/3 4/5/3
f 1/1/4 4/5/4 5/6/4
f 1/1/5 5/6/5 6/4/5
f 2/7/6 6/8/6 11/9/6
f 3/10/7 2/7/7 7/11/7
f 4/12/8 3/13/8 8/14/8
f 5/15/9 4/16/9 9/17/9
f 6/18/10 5/15/10 10/19/10
f 2/7/11 11/9/11 7/11/11
f 3/10/12 7/11/12 8/14/12
f 4/12/13 8/14/13 9/17/13
f 5/15/14 9/17/14 10/19/14
f 6/8/15 10/19/15 11/9/15
f 7/11/16 11/9/16 12/20/16
f 8/14/17 7/11/17 12/20/17
f 9/17/18 8/14/18 12/20/18
f 10/19/19 9/17/19 12/20/19
f 11/9/20 10/19/20 12/20/20
