# Blender 5.1.1
# www.blender.org
o Tree
v -0.040325 -0.012121 -0.326588
v 0.006658 0.832428 -0.343016
v 0.220228 0.003012 -0.259823
v 0.164611 0.834643 -0.258423
v 0.324643 -0.009855 -0.090622
v 0.240296 0.849345 -0.109521
v 0.260085 0.001858 0.201292
v 0.233413 0.834478 0.060294
v 0.086458 -0.000602 0.311689
v 0.088858 0.838959 0.131325
v -0.110791 -0.004623 0.315857
v -0.096713 0.871280 0.169042
v -0.296078 -0.012430 0.163407
v -0.228900 0.879309 0.055462
v -0.312112 0.004330 -0.055414
v -0.249433 0.854181 -0.110921
v -0.220540 -0.001273 -0.258851
v -0.132255 0.830863 -0.287099
v 0.588489 0.828304 -0.781060
v -0.005664 0.816588 -1.000259
v 0.930868 0.831314 -0.212083
v 0.783833 0.884133 0.418800
v 0.314400 0.899826 0.829254
v -0.330955 0.898454 0.834084
v -0.817905 0.882902 0.424656
v -0.923872 0.811577 -0.230257
v -0.631293 0.814054 -0.770442
v 0.267359 1.756706 -0.467395
v 0.000331 1.769604 -0.502476
v 0.467645 1.763517 -0.172458
v 0.371199 1.763648 0.134480
v 0.149191 1.750783 0.327539
v -0.164970 1.738938 0.316754
v -0.384559 1.750451 0.131110
v -0.450337 1.760684 -0.138348
v -0.288490 1.751026 -0.463196
v 0.410614 1.767471 -0.596456
v -0.011399 1.802743 -0.744811
v 0.674731 1.772817 -0.193197
v 0.577897 1.755492 0.289596
v 0.212873 1.736203 0.572991
v -0.205400 1.750710 0.530867
v -0.586307 1.759473 0.251302
v -0.619937 1.782053 -0.206505
v -0.429442 1.773322 -0.572390
v 0.189123 2.646693 -0.276128
v 0.014458 2.625759 -0.338247
v 0.232950 2.617201 -0.096496
v 0.232265 2.607342 0.096879
v 0.095702 2.594140 0.208327
v -0.100721 2.609377 0.193780
v -0.218290 2.624901 0.055683
v -0.255020 2.652767 -0.117357
v -0.163167 2.641618 -0.277920
v 0.284976 2.641462 -0.395727
v -0.008278 2.694908 -0.490764
v 0.459757 2.626323 -0.131277
v 0.373805 2.610785 0.148722
v 0.149756 2.592973 0.338947
v -0.130501 2.625255 0.320268
v -0.375580 2.597610 0.155382
v -0.436839 2.669548 -0.140892
v -0.270840 2.654316 -0.398074
v 0.025809 3.845828 -0.000946
vn 0.3403 -0.0067 -0.9403
vn 0.8681 0.0668 -0.4919
vn 0.9851 0.0791 0.1530
vn 0.4888 0.1715 0.8554
vn 0.1204 0.1849 0.9754
vn -0.6360 0.1386 0.7591
vn -0.9923 0.0827 0.0924
vn -0.0060 -0.9996 0.0282
vn -0.8732 0.0543 -0.4843
vn -0.3612 0.0043 -0.9325
vn 0.8711 0.4482 0.2008
vn 0.0138 -0.9997 0.0224
vn 0.0275 -0.9986 0.0448
vn 0.0521 -0.9927 0.1086
vn -0.0078 -0.9997 0.0236
vn -0.0339 -0.9974 0.0642
vn 0.0311 -0.9962 0.0814
vn 0.0096 -0.9997 0.0221
vn 0.0151 -0.9986 0.0502
vn 0.0180 -0.9864 -0.1634
vn -0.8807 0.4545 0.1336
vn 0.5745 0.4897 0.6559
vn 0.2577 0.4187 -0.8708
vn -0.7961 0.4339 -0.4218
vn -0.0124 0.5160 0.8565
vn 0.7678 0.4162 -0.4870
vn -0.2652 0.4189 -0.8685
vn -0.5567 0.5075 0.6576
vn -0.8050 0.3907 -0.4465
vn -0.0524 -0.9983 0.0241
vn 0.0091 -0.9998 -0.0195
vn -0.0861 -0.9957 -0.0332
vn 0.0056 -0.9982 -0.0604
vn -0.0348 -0.9910 -0.1295
vn -0.1197 -0.9922 -0.0347
vn -0.0032 -1.0000 -0.0059
vn 0.0503 -0.9986 -0.0161
vn -0.0157 -0.9787 -0.2049
vn -0.0669 0.3771 0.9237
vn 0.8125 0.4124 -0.4121
vn -0.3401 0.4096 -0.8465
vn -0.5827 0.3815 0.7176
vn 0.8941 0.4233 0.1460
vn -0.9102 0.3924 0.1329
vn 0.5539 0.3898 0.7357
vn 0.3130 0.4032 -0.8599
vn -0.5577 0.2773 0.7824
vn 0.0507 -0.9978 -0.0419
vn 0.0084 -0.9740 -0.2265
vn -0.1014 -0.9948 0.0002
vn -0.1036 -0.9924 0.0666
vn -0.0290 -0.9959 -0.0858
vn -0.0397 -0.9621 -0.2698
vn 0.0446 -0.9989 -0.0135
vn 0.0362 -0.9982 -0.0469
vn 0.9096 0.2921 0.2954
vn -0.9073 0.3251 0.2666
vn 0.6122 0.2629 0.7457
vn 0.3463 0.3587 -0.8669
vn -0.7720 0.3655 -0.5200
vn -0.0346 0.2585 0.9654
vn 0.7943 0.3367 -0.5057
vn -0.3596 0.3744 -0.8547
vt 1.000000 0.500000
vt 1.000000 1.000000
vt 0.888889 1.000000
vt 0.888889 0.500000
vt 0.777778 1.000000
vt 0.777778 0.500000
vt 0.666667 1.000000
vt 0.666667 0.500000
vt 0.555556 1.000000
vt 0.555556 0.500000
vt 0.444444 1.000000
vt 0.444444 0.500000
vt 0.333333 1.000000
vt 0.333333 0.500000
vt 0.222222 1.000000
vt 0.222222 0.500000
vt 0.111111 1.000000
vt 0.111111 0.500000
vt 0.000000 1.000000
vt 0.000000 0.500000
s 0
f 1/1/1 2/2/1 4/3/1 3/4/1
f 3/4/2 4/3/2 6/5/2 5/6/2
f 5/6/3 6/5/3 8/7/3 7/8/3
f 7/8/4 8/7/4 10/9/4 9/10/4
f 9/10/5 10/9/5 12/11/5 11/12/5
f 11/12/6 12/11/6 14/13/6 13/14/6
f 13/14/7 14/13/7 16/15/7 15/16/7
f 6/5/8 4/3/8 19/3/8 21/5/8
f 15/16/9 16/15/9 18/17/9 17/18/9
f 17/18/10 18/17/10 2/19/10 1/20/10
f 22/7/11 21/5/11 30/5/11 31/7/11
f 2/19/12 18/17/12 27/17/12 20/19/12
f 18/17/13 16/15/13 26/15/13 27/17/13
f 16/15/14 14/13/14 25/13/14 26/15/14
f 14/13/15 12/11/15 24/11/15 25/13/15
f 12/11/16 10/9/16 23/9/16 24/11/16
f 10/9/17 8/7/17 22/7/17 23/9/17
f 4/3/18 2/2/18 20/2/18 19/3/18
f 8/7/19 6/5/19 21/5/19 22/7/19
f 29/19/20 36/17/20 45/17/20 38/19/20
f 26/15/21 25/13/21 34/13/21 35/15/21
f 23/9/22 22/7/22 31/7/22 32/9/22
f 19/3/23 20/2/23 29/2/23 28/3/23
f 27/17/24 26/15/24 35/15/24 36/17/24
f 24/11/25 23/9/25 32/9/25 33/11/25
f 21/5/26 19/3/26 28/3/26 30/5/26
f 20/19/27 27/17/27 36/17/27 29/19/27
f 25/13/28 24/11/28 33/11/28 34/13/28
f 45/17/29 44/15/29 53/15/29 54/17/29
f 34/13/30 33/11/30 42/11/30 43/13/30
f 31/7/31 30/5/31 39/5/31 40/7/31
f 35/15/32 34/13/32 43/13/32 44/15/32
f 32/9/33 31/7/33 40/7/33 41/9/33
f 28/3/34 29/2/34 38/2/34 37/3/34
f 36/17/35 35/15/35 44/15/35 45/17/35
f 33/11/36 32/9/36 41/9/36 42/11/36
f 30/5/37 28/3/37 37/3/37 39/5/37
f 53/15/38 52/13/38 61/13/38 62/15/38
f 42/11/39 41/9/39 50/9/39 51/11/39
f 39/5/40 37/3/40 46/3/40 48/5/40
f 38/19/41 45/17/41 54/17/41 47/19/41
f 43/13/42 42/11/42 51/11/42 52/13/42
f 40/7/43 39/5/43 48/5/43 49/7/43
f 44/15/44 43/13/44 52/13/44 53/15/44
f 41/9/45 40/7/45 49/7/45 50/9/45
f 37/3/46 38/2/46 47/2/46 46/3/46
f 61/13/47 60/11/47 64/13/47
f 50/9/48 49/7/48 58/7/48 59/9/48
f 46/3/49 47/2/49 56/2/49 55/3/49
f 54/17/50 53/15/50 62/15/50 63/17/50
f 51/11/51 50/9/51 59/9/51 60/11/51
f 48/5/52 46/3/52 55/3/52 57/5/52
f 47/19/53 54/17/53 63/17/53 56/19/53
f 52/13/54 51/11/54 60/11/54 61/13/54
f 49/7/55 48/5/55 57/5/55 58/7/55
f 58/7/56 57/5/56 64/7/56
f 62/15/57 61/13/57 64/15/57
f 59/9/58 58/7/58 64/9/58
f 55/3/59 56/2/59 64/3/59
f 63/17/60 62/15/60 64/17/60
f 60/11/61 59/9/61 64/11/61
f 57/5/62 55/3/62 64/5/62
f 56/19/63 63/17/63 64/19/63
