# Blender 5.1.1
# www.blender.org
o Tree
v -0.040325 -0.012121 -0.326588
v 0.006658 0.832428 -0.343016
v 0.220228 0.003012 -0.259823
v 0.164611 0.834643 -0.258423
v 0.324643 -0.009855 -0.090622
v 0.240296 0.849345 -0.109521
v 0.260085 0.001858 0.201292
v 0.233413 0.834478 0.060294
v 0.086458 -0.000602 0.311689
v 0.088858 0.838959 0.131325
v -0.110791 -0.004623 0.315857
v -0.096713 0.871280 0.169042
v -0.296078 -0.012430 0.163407
v -0.228900 0.879309 0.055462
v -0.312112 0.004330 -0.055414
v -0.249433 0.854181 -0.110921
v -0.220540 -0.001273 -0.258851
v -0.132255 0.830863 -0.287099
v 0.588489 0.828304 -0.781060
v -0.005664 0.816588 -1.000259
v 0.930868 0.831314 -0.212083
v 0.783833 0.884133 0.418800
v 0.314400 0.899826 0.829254
v -0.330955 0.898454 0.834084
v -0.817905 0.882902 0.424656
v -0.923872 0.811577 -0.230257
v -0.631293 0.814054 -0.770442
v 0.267359 1.756706 -0.467395
v 0.000331 1.769604 -0.502476
v 0.467645 1.763517 -0.172458
v 0.371199 1.763648 0.134480
v 0.149191 1.750783 0.327539
v -0.164970 1.738938 0.316754
v -0.384559 1.750451 0.131110
v -0.450337 1.760684 -0.138348
v -0.288490 1.751026 -0.463196
v 0.410614 1.767471 -0.596456
v -0.011399 1.802743 -0.744811
v 0.674731 1.772817 -0.193197
v 0.577897 1.755492 0.289596
v 0.212873 1.736203 0.572991
v -0.205400 1.750710 0.530867
v -0.586307 1.759473 0.251302
v -0.619937 1.782053 -0.206505
v -0.429442 1.773322 -0.572390
v 0.189123 2.646693 -0.276128
v 0.014458 2.625759 -0.338247
v 0.232950 2.617201 -0.096496
v 0.232265 2.607342 0.096879
v 0.095702 2.594140 0.208327
v -0.100721 2.609377 0.193780
v -0.218290 2.624901 0.055683
v -0.255020 2.652767 -0.117357
v -0.163167 2.641618 -0.277920
v 0.284976 2.641462 -0.395727
v -0.008278 2.694908 -0.490764
v 0.459757 2.626323 -0.131277
v 0.373805 2.610785 0.148722
v 0.149756 2.592973 0.338947
v -0.130501 2.625255 0.320268
v -0.375580 2.597610 0.155382
v -0.436839 2.669548 -0.140892
v -0.270840 2.654316 -0.398074
v 0.025809 3.845828 -0.000946
vn 0.3403 -0.0067 -0.9403
vn 0.8681 0.0668 -0.4919
vn 0.9851 0.0791 0.1530
vn 0.4888 0.1715 0.8554
vn 0.1204 0.1849 0.9754
vn -0.6360 0.1386 0.7591
vn -0.9923 0.0827 0.0924
vn -0.0060 -0.9996 0.0282
vn -0.8732 0.0543 -0.4843
vn -0.3612 0.0043 -0.9325
vn 0.8711 0.4482 0.2008
vn 0.0138 -0.9997 0.0224
vn 0.0275 -0.9986 0.0448
vn 0.0521 -0.9927 0.1086
vn -0.0078 -0.9997 0.0236
vn -0.0339 -0.9974 0.0642
vn 0.0311 -0.9962 0.0814
vn 0.0096 -0.9997 0.0221
vn 0.0151 -0.9986 0.0502
vn 0.0180 -0.9864 -0.1634
vn -0.8807 0.4545 0.1336
vn 0.5745 0.4897 0.6559
vn 0.2577 0.4187 -0.8708
vn -0.7961 0.4339 -0.4218
vn -0.0124 0.5160 0.8565
vn 0.7678 0.4162 -0.4870
vn -0.2652 0.4189 -0.8685
vn -0.5567 0.5075 0.6576
vn -0.8050 0.3907 -0.4465
vn -0.0524 -0.9983 0.0241
vn 0.0091 -0.9998 -0.0195
vn -0.0861 -0.9957 -0.0332
vn 0.0056 -0.9982 -0.0604
vn -0.0348 -0.9910 -0.1295
vn -0.1197 -0.9922 -0.0347
vn -0.0032 -1.0000 -0.0059
vn 0.0503 -0.9986 -0.0161
vn -0.0157 -0.9787 -0.2049
vn -0.0669 0.3771 0.9237
vn 0.8125 0.4124 -0.4121
vn -0.3401 0.4096 -0.8465
vn -0.5827 0.3815 0.7176
vn 0.8941 0.4233 0.1460
vn -0.9102 0.3924 0.1329
vn 0.5539 0.3898 0.7357
vn 0.3130 0.4032 -0.8599
vn -0.5577 0.2773 0.7824
vn 0.0507 -0.9978 -0.0419
vn 0.0084 -0.9740 -0.2265
vn -0.1014 -0.9948 0.0002
vn -0.1036 -0.9924 0.0666
vn -0.0290 -0.9959 -0.0858
vn -0.0397 -0.9621 -0.2698
vn 0.0446 -0.9989 -0.0135
vn 0.0362 -0.9982 -0.0469
vn 0.9096 0.2921 0.2954
vn -0.9073 0.3251 0.2666
vn 0.6122 0.2629 0.7457
vn 0.3463 0.3587 -0.8669
vn -0.7720 0.3655 -0.5200
vn -0.0346 0.2585 0.9654
vn 0.7943 0.3367 -0.5057
vn -0.3596 0.3744 -0.8547
vt 0.628625 0.040163
vt 0.600367 0.183100
vt 0.568997 0.178989
vt 0.583558 0.036852
vt 0.539174 0.178055
vt 0.551104 0.030004
vt 0.509245 0.172787
vt 0.501552 0.027095
vt 0.480518 0.173548
vt 0.467356 0.025517
vt 0.447166 0.179579
vt 0.434418 0.027144
vt 0.417255 0.185293
vt 0.394226 0.032084
vt 0.387966 0.187586
vt 0.358642 0.043626
vt 0.668422 0.247596
vt 0.698492 0.256789
vt 0.665545 0.367086
vt 0.558016 0.355279
vt 0.698464 0.051841
vt 0.662152 0.194492
vt 0.626436 0.185788
vt 0.660799 0.045588
vt 0.423594 0.362057
vt 0.527537 0.345156
vt 0.458845 0.543490
vt 0.397743 0.529743
vt 0.745453 0.259683
vt 0.787521 0.252303
vt 0.849687 0.359959
vt 0.755649 0.368086
vt 0.833666 0.234452
vt 0.950448 0.352801
vt 0.174110 0.240976
vt 0.205731 0.249799
vt 0.161593 0.367404
vt 0.054248 0.353252
vt 0.256257 0.246716
vt 0.250243 0.365102
vt 0.323139 0.246369
vt 0.336699 0.358266
vt 0.376526 0.246074
vt 0.405443 0.233107
vt 0.757245 0.537855
vt 0.820730 0.539745
vt 0.826917 0.571308
vt 0.758798 0.573152
vt 0.198224 0.535496
vt 0.143936 0.551728
vt 0.333443 0.524489
vt 0.699344 0.539900
vt 0.886229 0.548261
vt 0.261390 0.531451
vt 0.629648 0.549506
vt 0.893187 0.583608
vt 0.831483 0.743125
vt 0.796282 0.736787
vt 0.269275 0.565611
vt 0.199428 0.570556
vt 0.475097 0.585008
vt 0.396390 0.572191
vt 0.129234 0.590660
vt 0.329967 0.565449
vt 0.691025 0.572394
vt 0.613433 0.586859
vt 0.202296 0.736108
vt 0.233640 0.726176
vt 0.235002 0.752963
vt 0.187225 0.771264
vt 0.319829 0.727100
vt 0.274258 0.726050
vt 0.715619 0.732812
vt 0.680967 0.734103
vt 0.755479 0.731542
vt 0.395390 0.740512
vt 0.359481 0.732597
vt 0.279699 0.750264
vt 0.280206 0.968585
vt 0.365784 0.763437
vt 0.322934 0.749099
vt 0.759308 0.761817
vt 0.711450 0.758319
vt 0.848805 0.783943
vt 0.802464 0.764269
vt 0.659689 0.769044
vt 0.409870 0.784598
vt 0.740825 0.976169
s 0
f 1/1/1 2/2/1 4/3/1 3/4/1
f 3/4/2 4/3/2 6/5/2 5/6/2
f 5/6/3 6/5/3 8/7/3 7/8/3
f 7/8/4 8/7/4 10/9/4 9/10/4
f 9/10/5 10/9/5 12/11/5 11/12/5
f 11/12/6 12/11/6 14/13/6 13/14/6
f 13/14/7 14/13/7 16/15/7 15/16/7
f 6/17/8 4/18/8 19/19/8 21/20/8
f 15/21/9 16/22/9 18/23/9 17/24/9
f 17/24/10 18/23/10 2/2/10 1/1/10
f 22/25/11 21/26/11 30/27/11 31/28/11
f 2/29/12 18/30/12 27/31/12 20/32/12
f 18/30/13 16/33/13 26/34/13 27/31/13
f 16/35/14 14/36/14 25/37/14 26/38/14
f 14/36/15 12/39/15 24/40/15 25/37/15
f 12/39/16 10/41/16 23/42/16 24/40/16
f 10/41/17 8/43/17 22/25/17 23/42/17
f 4/18/18 2/29/18 20/32/18 19/19/18
f 8/43/19 6/44/19 21/26/19 22/25/19
f 29/45/20 36/46/20 45/47/20 38/48/20
f 26/38/21 25/37/21 34/49/21 35/50/21
f 23/42/22 22/25/22 31/28/22 32/51/22
f 19/19/23 20/32/23 29/45/23 28/52/23
f 27/31/24 26/34/24 35/53/24 36/46/24
f 24/40/25 23/42/25 32/51/25 33/54/25
f 21/20/26 19/19/26 28/52/26 30/55/26
f 20/32/27 27/31/27 36/46/27 29/45/27
f 25/37/28 24/40/28 33/54/28 34/49/28
f 45/47/29 44/56/29 53/57/29 54/58/29
f 34/49/30 33/54/30 42/59/30 43/60/30
f 31/28/31 30/27/31 39/61/31 40/62/31
f 35/50/32 34/49/32 43/60/32 44/63/32
f 32/51/33 31/28/33 40/62/33 41/64/33
f 28/52/34 29/45/34 38/48/34 37/65/34
f 36/46/35 35/53/35 44/56/35 45/47/35
f 33/54/36 32/51/36 41/64/36 42/59/36
f 30/55/37 28/52/37 37/65/37 39/66/37
f 53/67/38 52/68/38 61/69/38 62/70/38
f 42/59/39 41/64/39 50/71/39 51/72/39
f 39/66/40 37/65/40 46/73/40 48/74/40
f 38/48/41 45/47/41 54/58/41 47/75/41
f 43/60/42 42/59/42 51/72/42 52/68/42
f 40/62/43 39/61/43 48/76/43 49/77/43
f 44/63/44 43/60/44 52/68/44 53/67/44
f 41/64/45 40/62/45 49/77/45 50/71/45
f 37/65/46 38/48/46 47/75/46 46/73/46
f 61/69/47 60/78/47 64/79/47
f 50/71/48 49/77/48 58/80/48 59/81/48
f 46/73/49 47/75/49 56/82/49 55/83/49
f 54/58/50 53/57/50 62/84/50 63/85/50
f 51/72/51 50/71/51 59/81/51 60/78/51
f 48/74/52 46/73/52 55/83/52 57/86/52
f 47/75/53 54/58/53 63/85/53 56/82/53
f 52/68/54 51/72/54 60/78/54 61/69/54
f 49/77/55 48/76/55 57/87/55 58/80/55
f 58/80/56 57/87/56 64/79/56
f 62/70/57 61/69/57 64/79/57
f 59/81/58 58/80/58 64/79/58
f 55/83/59 56/82/59 64/88/59
f 63/85/60 62/84/60 64/88/60
f 60/78/61 59/81/61 64/79/61
f 57/86/62 55/83/62 64/88/62
f 56/82/63 63/85/63 64/88/63
